<?xml version="1.0" encoding="UTF-8" standalone="no"?>
<svg
   xmlns:dc="http://purl.org/dc/elements/1.1/"
   xmlns:cc="http://creativecommons.org/ns#"
   xmlns:rdf="http://www.w3.org/1999/02/22-rdf-syntax-ns#"
   xmlns:svg="http://www.w3.org/2000/svg"
   xmlns="http://www.w3.org/2000/svg"
   xmlns:sodipodi="http://sodipodi.sourceforge.net/DTD/sodipodi-0.dtd"
   xmlns:inkscape="http://www.inkscape.org/namespaces/inkscape"
   viewBox="0 0 24 24"
   version="1.1"
   id="svg4"
   sodipodi:docname="search.svg"
   inkscape:version="1.0.1 (3bc2e813f5, 2020-09-07)">
  <metadata
     id="metadata10">
    <rdf:RDF>
      <cc:Work
         rdf:about="">
        <dc:format>image/svg+xml</dc:format>
        <dc:type
           rdf:resource="http://purl.org/dc/dcmitype/StillImage" />
      </cc:Work>
    </rdf:RDF>
  </metadata>
  <defs
     id="defs8" />
  <sodipodi:namedview
     pagecolor="#ffffff"
     bordercolor="#666666"
     borderopacity="1"
     objecttolerance="10"
     gridtolerance="10"
     guidetolerance="10"
     inkscape:pageopacity="0"
     inkscape:pageshadow="2"
     inkscape:window-width="687"
     inkscape:window-height="480"
     id="namedview6"
     showgrid="false"
     inkscape:zoom="22.416667"
     inkscape:cx="12"
     inkscape:cy="12"
     inkscape:window-x="0"
     inkscape:window-y="0"
     inkscape:window-maximized="0"
     inkscape:current-layer="svg4" />
  <path
     d="m22.241 24-7.414-7.414c-1.559 1.169-3.523 1.875-5.652 1.885h-.002c-.032 0-.07.001-.108.001-5.006 0-9.065-4.058-9.065-9.065 0-.038 0-.076.001-.114v.006c0-5.135 4.163-9.298 9.298-9.298s9.298 4.163 9.298 9.298c-.031 2.129-.733 4.088-1.904 5.682l.019-.027 7.414 7.414zm-12.942-21.487c-3.72.016-6.73 3.035-6.73 6.758 0 3.732 3.025 6.758 6.758 6.758s6.758-3.025 6.758-6.758c0-1.866-.756-3.555-1.979-4.778-1.223-1.223-2.912-1.979-4.778-1.979-.01 0-.02 0-.03 0h.002z"
     id="path2"
     style="fill:#ffffff" />
</svg>
