<?xml version="1.0" encoding="UTF-8" standalone="no"?>
<svg
   xmlns:dc="http://purl.org/dc/elements/1.1/"
   xmlns:cc="http://creativecommons.org/ns#"
   xmlns:rdf="http://www.w3.org/1999/02/22-rdf-syntax-ns#"
   xmlns:svg="http://www.w3.org/2000/svg"
   xmlns="http://www.w3.org/2000/svg"
   xmlns:sodipodi="http://sodipodi.sourceforge.net/DTD/sodipodi-0.dtd"
   xmlns:inkscape="http://www.inkscape.org/namespaces/inkscape"
   viewBox="0 0 11 24"
   version="1.1"
   id="svg4"
   sodipodi:docname="about.svg"
   inkscape:version="1.0.1 (3bc2e813f5, 2020-09-07)">
  <metadata
     id="metadata10">
    <rdf:RDF>
      <cc:Work
         rdf:about="">
        <dc:format>image/svg+xml</dc:format>
        <dc:type
           rdf:resource="http://purl.org/dc/dcmitype/StillImage" />
      </cc:Work>
    </rdf:RDF>
  </metadata>
  <defs
     id="defs8" />
  <sodipodi:namedview
     pagecolor="#ffffff"
     bordercolor="#666666"
     borderopacity="1"
     objecttolerance="10"
     gridtolerance="10"
     guidetolerance="10"
     inkscape:pageopacity="0"
     inkscape:pageshadow="2"
     inkscape:window-width="1366"
     inkscape:window-height="705"
     id="namedview6"
     showgrid="false"
     inkscape:zoom="22.416667"
     inkscape:cx="5.5"
     inkscape:cy="12"
     inkscape:window-x="-8"
     inkscape:window-y="-8"
     inkscape:window-maximized="1"
     inkscape:current-layer="svg4" />
  <path
     d="m8.436.006c.051-.004.111-.007.172-.007 1.237 0 2.239 1.003 2.239 2.239 0 .041-.001.081-.003.122v-.006c-.079 1.679-1.46 3.01-3.151 3.01-.022 0-.043 0-.065-.001h.003c-.069.008-.15.012-.231.012-1.188 0-2.151-.963-2.151-2.151 0-.088.005-.174.015-.259l-.001.01c.063-1.655 1.419-2.972 3.084-2.972.031 0 .062 0 .093.001h-.005zm-4.947 23.994c-1.268 0-2.199-.783-1.311-4.226l1.456-6.108c.254-.978.295-1.369 0-1.369-1.141.293-2.142.752-3.035 1.359l.033-.021-.633-1.057c3.086-2.622 6.638-4.159 8.158-4.159 1.268 0 1.48 1.526.845 3.874l-1.666 6.421c-.296 1.135-.168 1.526.126 1.526 1.106-.256 2.069-.761 2.863-1.456l-.008.007.72.979c-3.004 3.052-6.281 4.232-7.549 4.232z"
     id="path2"
     style="fill:#ffffff" />
</svg>
